# xmcd
#
# Track frame offsets: 
#        150
#        20365
#        42594
#        63510
#        85359
#        111108
#        130600
#        151642
#        174779
#        194461
#        213964
#        236722
#
# Disc length: 3423 seconds
#
# Revision: 2
# Processed by: cddbd v1.5.2PL0 Copyright (c) Steve Scherf et al.
# Submitted via: ExactAudioCopy v0.99pb4
#
DISCID=970d5d0c
DTITLE=elvis phuong - elvis phuong
DYEAR=1900
DGENRE=
TTITLE0=neu co yeu toi
TTITLE1=thu hat cho nguoi
TTITLE2=khoang cach
TTITLE3=em co mai la niem dau
TTITLE4=niem khuc cuoi
TTITLE5=cam on em
TTITLE6=bien can
TTITLE7=anh van biet
TTITLE8=ngon nen
TTITLE9=toi di giua hoang hon
TTITLE10=cuoc doi
TTITLE11=mot ngay binh yen
EXTD=
EXTT0=
EXTT1=
EXTT2=
EXTT3=
EXTT4=
EXTT5=
EXTT6=
EXTT7=
EXTT8=
EXTT9=
EXTT10=
EXTT11=
PLAYORDER=
